<?xml version="1.0" encoding="UTF-8"?>
<svg xmlns="http://www.w3.org/2000/svg" viewBox="0 0 1024 1024" width="100%" height="100%">
<title>Logo de Programador</title>
<desc>Logo vectorizado generado a partir de PNG</desc>
<path fill="#00D8F0" d="M313 622 L313 628 L315 632 L323 640 L324 640 L327 643 L328 643 L330 645 L334 647 L336 647 L337 648 L341 648 L342 649 L529 649 L533 647 L537 643 L538 641 L538 629 L536 625 L532 621 L528 619 L505 619 L504 618 L503 619 L501 619 L500 618 L495 618 L494 619 L490 619 L489 618 L487 619 L474 619 L473 618 L471 618 L470 619 L468 618 L408 618 L407 619 L340 619 L339 618 L320 618 L319 619 L316 619 Z"/>
<path fill="#00D8F0" d="M266 564 L266 571 L272 584 L278 592 L285 597 L288 598 L298 598 L299 599 L316 599 L317 598 L354 598 L355 599 L368 599 L369 598 L524 598 L527 599 L528 598 L532 598 L533 599 L541 599 L542 598 L550 597 L556 594 L559 591 L566 579 L566 576 L568 573 L568 566 L567 564 L561 560 L526 560 L525 559 L365 559 L364 560 L299 560 L298 559 L292 559 L291 560 L270 560 L268 561 Z"/>
<path fill="#00D8F0" d="M235 506 L235 515 L236 516 L236 518 L237 519 L237 520 L238 521 L238 522 L239 523 L239 524 L240 525 L240 526 L241 527 L241 528 L243 530 L243 531 L248 536 L250 536 L251 537 L253 537 L254 538 L275 538 L276 539 L287 539 L288 538 L294 538 L295 539 L313 539 L314 538 L323 538 L324 537 L326 537 L327 536 L329 536 L330 535 L331 535 L334 532 L334 531 L335 530 L335 529 L336 528 L336 527 L337 526 L337 523 L338 522 L338 514 L337 513 L337 511 L336 510 L336 509 L334 507 L334 506 L331 503 L330 503 L329 502 L328 502 L327 501 L326 501 L325 500 L244 500 L243 501 L240 501 L239 502 L238 502 L236 504 L236 505 Z"/>
<path fill="#00D8F0" d="M731 517 L730 516 L730 513 L729 512 L729 510 L728 509 L728 507 L726 505 L726 504 L722 500 L721 500 L720 499 L718 499 L717 498 L711 498 L710 497 L702 497 L701 498 L619 498 L618 499 L616 499 L615 500 L614 500 L612 502 L611 502 L610 503 L610 504 L608 506 L608 507 L607 508 L607 510 L606 511 L606 522 L607 523 L607 525 L608 526 L608 527 L609 528 L609 529 L612 532 L613 532 L616 534 L619 534 L620 535 L720 535 L721 534 L725 534 L726 533 L727 533 L728 532 L728 531 L730 529 L730 525 L731 524 Z"/>
<path fill="#00D8F0" d="M862 468 L858 472 L858 475 L857 476 L857 478 L858 479 L859 482 L864 487 L865 487 L873 495 L874 495 L878 499 L879 499 L884 504 L885 504 L892 511 L893 511 L899 517 L900 517 L906 523 L907 523 L911 527 L911 528 L912 529 L912 530 L910 532 L909 532 L906 535 L905 535 L894 545 L893 545 L889 549 L888 549 L884 553 L883 553 L877 559 L876 559 L871 564 L870 564 L866 568 L865 568 L858 575 L858 576 L857 577 L857 583 L858 584 L858 585 L860 587 L861 587 L862 588 L864 588 L865 589 L867 589 L868 588 L871 587 L873 585 L874 585 L878 581 L879 581 L882 578 L883 578 L889 572 L890 572 L894 568 L895 568 L900 563 L901 563 L904 560 L905 560 L909 556 L910 556 L914 552 L915 552 L920 547 L921 547 L925 543 L926 543 L930 539 L931 539 L935 535 L937 529 L936 528 L936 526 L935 525 L935 524 L931 520 L930 520 L924 514 L923 514 L918 509 L917 509 L911 503 L910 503 L900 494 L899 494 L892 487 L891 487 L884 480 L883 480 L878 475 L877 475 L871 469 L869 469 L868 468 Z"/>
<path fill="#00D8F0" d="M170 467 L169 468 L168 468 L164 472 L163 472 L159 476 L158 476 L155 479 L154 479 L150 483 L149 483 L144 488 L143 488 L139 492 L138 492 L134 496 L133 496 L129 500 L128 500 L124 504 L123 504 L119 508 L118 508 L109 516 L108 516 L100 524 L100 525 L99 526 L99 532 L100 533 L100 534 L104 538 L105 538 L110 543 L111 543 L114 546 L115 546 L117 548 L118 548 L124 554 L125 554 L133 561 L134 561 L138 565 L139 565 L145 571 L146 571 L151 576 L152 576 L156 580 L157 580 L162 585 L163 585 L169 590 L176 590 L181 585 L181 579 L180 578 L179 575 L174 570 L173 570 L171 568 L170 568 L160 559 L159 559 L149 550 L148 550 L140 543 L139 543 L138 542 L138 541 L137 541 L132 536 L131 536 L127 532 L126 532 L124 530 L124 528 L125 527 L125 526 L127 524 L128 524 L130 522 L131 522 L141 513 L142 513 L146 509 L147 509 L150 506 L151 506 L155 502 L156 502 L160 498 L161 498 L165 494 L166 494 L170 490 L171 490 L182 480 L182 479 L183 478 L183 473 L182 472 L182 471 L179 468 L178 468 L177 467 Z"/>
<path fill="#00D8F0" d="M831 455 L826 455 L824 457 L823 457 L822 458 L822 459 L820 461 L820 462 L819 463 L819 465 L817 468 L817 470 L816 471 L816 473 L815 474 L815 476 L814 477 L814 479 L813 480 L813 481 L812 482 L812 484 L811 485 L811 488 L810 489 L810 491 L808 494 L808 496 L807 497 L807 499 L806 500 L806 502 L805 503 L805 505 L803 508 L803 511 L802 512 L802 514 L801 515 L801 517 L799 520 L799 522 L798 523 L798 525 L797 526 L797 528 L796 529 L796 531 L795 532 L795 534 L794 535 L794 537 L793 538 L793 540 L792 541 L792 543 L791 544 L791 546 L790 547 L790 549 L788 552 L788 554 L787 555 L787 558 L785 561 L785 563 L784 564 L784 566 L783 567 L783 570 L781 573 L781 575 L780 576 L780 578 L779 579 L779 582 L778 583 L778 584 L777 585 L777 587 L776 588 L776 594 L781 599 L782 599 L783 600 L787 600 L788 599 L790 599 L793 596 L793 595 L794 594 L794 592 L795 591 L795 589 L796 588 L796 586 L797 585 L797 583 L799 580 L799 577 L800 576 L800 574 L801 573 L801 571 L802 570 L802 568 L803 567 L803 565 L804 564 L804 562 L805 561 L805 559 L806 558 L806 556 L807 555 L807 553 L808 552 L808 550 L809 549 L809 548 L810 547 L810 545 L811 544 L811 541 L812 540 L812 538 L814 535 L814 533 L815 532 L815 530 L816 529 L816 526 L817 525 L817 524 L818 523 L818 521 L819 520 L819 517 L820 516 L820 514 L822 511 L822 509 L823 508 L823 506 L824 505 L824 503 L825 502 L825 500 L826 499 L826 497 L827 496 L827 494 L828 493 L828 491 L830 488 L830 486 L831 485 L831 483 L832 482 L832 480 L833 479 L833 477 L834 476 L834 473 L836 470 L836 467 L837 466 L837 461 L835 459 L835 458 L834 457 L833 457 Z"/>
<path fill="#00D8F0" d="M591 446 L591 453 L592 454 L592 456 L593 457 L593 459 L595 461 L595 462 L596 463 L596 464 L598 466 L598 467 L605 474 L606 474 L609 476 L612 476 L613 477 L701 477 L702 476 L707 476 L708 475 L709 475 L711 472 L711 464 L710 463 L710 462 L709 461 L709 460 L708 459 L708 458 L707 457 L707 456 L705 454 L705 453 L704 452 L704 451 L702 449 L702 448 L700 446 L700 445 L697 442 L696 442 L694 440 L692 440 L691 439 L597 439 L595 441 L594 441 L594 442 L592 444 L592 445 Z"/>
<path fill="#00D8F0" d="M223 405 L223 434 L233 457 L244 470 L254 477 L264 481 L295 484 L525 484 L531 489 L531 495 L526 500 L374 501 L368 504 L362 513 L363 528 L365 532 L372 537 L389 539 L549 538 L559 536 L567 532 L576 521 L580 511 L581 492 L578 480 L573 470 L557 453 L541 446 L524 443 L337 442 L320 439 L286 426 L261 409 L246 391 L239 386 L235 386 L229 391 Z"/>
<path fill="#00D8F0" d="M490 328 L490 334 L491 335 L491 336 L492 337 L492 338 L493 339 L493 340 L497 345 L497 346 L502 351 L503 351 L505 353 L506 353 L507 354 L509 354 L510 355 L513 355 L514 356 L553 356 L554 357 L571 357 L572 356 L609 356 L610 355 L612 355 L613 354 L615 354 L620 349 L620 348 L622 346 L622 344 L623 343 L623 333 L622 332 L622 331 L621 330 L621 329 L620 328 L620 327 L617 324 L616 324 L613 322 L610 322 L609 321 L597 321 L596 322 L502 322 L501 321 L498 321 L497 322 L495 322 L494 323 L493 323 L491 325 L491 327 Z"/>
<path fill="#00D8F0" d="M617 279 L617 290 L618 291 L618 293 L620 295 L620 296 L623 299 L624 299 L625 300 L626 300 L627 301 L629 301 L630 302 L659 302 L660 303 L663 303 L664 302 L666 302 L667 303 L670 303 L672 301 L673 301 L675 299 L676 299 L680 295 L681 295 L682 294 L682 292 L683 291 L683 287 L684 286 L684 283 L683 282 L683 278 L682 277 L682 275 L680 273 L680 272 L678 270 L677 270 L676 269 L674 269 L673 268 L629 268 L628 269 L626 269 L625 270 L624 270 L619 275 L619 276 L618 277 L618 278 Z"/>
<path fill="#00D8F0" d="M479 284 L479 288 L480 289 L480 291 L481 292 L481 294 L482 295 L482 296 L486 300 L487 300 L488 301 L489 301 L490 302 L496 302 L497 303 L573 303 L574 302 L578 302 L579 301 L581 301 L584 298 L585 298 L586 297 L586 296 L587 295 L587 294 L588 293 L588 292 L589 291 L589 279 L588 278 L588 277 L587 276 L587 275 L582 270 L580 270 L579 269 L576 269 L575 268 L491 268 L490 269 L488 269 L487 270 L486 270 L484 272 L484 273 L482 275 L482 276 L481 277 L481 279 L480 280 L480 283 Z"/>
<path fill="#00D8F0" d="M499 238 L499 244 L501 246 L501 247 L502 247 L505 249 L520 249 L521 248 L632 248 L633 249 L659 249 L660 248 L661 248 L663 246 L663 245 L664 244 L664 242 L665 241 L665 240 L664 239 L664 237 L655 228 L654 228 L651 225 L650 225 L648 223 L645 222 L643 220 L642 220 L635 216 L633 216 L630 214 L628 214 L627 213 L625 213 L624 212 L622 212 L621 211 L617 211 L616 210 L550 210 L549 211 L542 211 L541 212 L539 212 L538 213 L536 213 L535 214 L533 214 L530 216 L528 216 L527 217 L526 217 L525 218 L520 220 L518 222 L515 223 L512 226 L511 226 L507 230 L506 230 L500 236 L500 237 Z"/>
<path fill="#FF4C4C" d="M376 674 L376 678 L380 682 L390 687 L392 687 L395 689 L397 689 L405 693 L416 696 L419 698 L422 698 L423 699 L426 699 L427 700 L430 700 L434 702 L442 703 L443 704 L446 704 L447 705 L452 705 L453 706 L460 706 L461 707 L468 707 L469 708 L478 708 L479 709 L494 709 L495 710 L516 710 L517 709 L532 709 L533 708 L550 707 L551 706 L556 706 L557 705 L560 705 L561 704 L570 703 L571 702 L582 700 L583 699 L585 699 L586 698 L600 694 L603 692 L608 691 L611 689 L613 689 L623 684 L631 677 L631 673 L629 670 L623 669 L622 668 L565 668 L564 669 L557 669 L556 668 L541 668 L540 669 L530 669 L529 668 L389 668 L388 669 L381 669 L379 671 L378 671 Z"/>
<path fill="#FF4C4C" d="M693 621 L691 618 L689 618 L688 617 L679 617 L678 618 L565 618 L561 622 L561 624 L560 625 L560 642 L561 643 L561 644 L562 645 L562 646 L563 647 L564 647 L567 649 L665 649 L666 648 L670 648 L671 647 L672 647 L673 646 L674 646 L675 645 L676 645 L678 643 L679 643 L683 639 L684 639 L690 633 L690 632 L692 630 L692 629 L693 628 Z"/>
<path fill="#FF4C4C" d="M727 565 L726 564 L725 561 L723 559 L722 559 L721 558 L714 558 L713 557 L710 557 L709 558 L605 558 L604 559 L601 560 L599 562 L598 562 L598 563 L595 566 L595 567 L593 570 L593 572 L592 573 L592 582 L593 583 L593 585 L594 586 L594 587 L599 592 L600 592 L602 594 L604 594 L605 595 L709 595 L710 594 L712 594 L713 593 L714 593 L716 591 L716 590 L719 587 L719 586 L721 584 L721 583 L722 582 L722 581 L724 578 L724 576 L725 575 L725 573 L726 572 L726 570 L727 569 Z"/>
<path fill="#FFDC3C" d="M525 386 L525 392 L526 393 L526 395 L527 396 L527 397 L529 399 L529 400 L532 403 L532 404 L539 411 L540 411 L541 412 L542 412 L545 414 L659 414 L660 413 L661 413 L664 410 L664 403 L663 402 L662 399 L658 394 L658 393 L648 383 L647 383 L644 381 L641 381 L640 380 L533 380 L532 381 L530 381 L529 382 L528 382 L526 384 L526 385 Z"/>
<path fill="#FFDC3C" d="M647 340 L648 341 L648 342 L651 345 L652 345 L653 346 L656 346 L657 347 L731 347 L732 346 L738 346 L739 345 L741 345 L742 344 L744 344 L745 343 L746 343 L747 342 L748 342 L749 341 L750 341 L751 340 L754 339 L756 337 L757 337 L766 328 L766 327 L768 325 L768 324 L772 319 L772 318 L773 317 L773 316 L775 313 L775 311 L776 310 L776 303 L775 302 L774 299 L772 297 L771 297 L770 296 L768 296 L767 295 L682 295 L681 296 L680 296 L676 300 L675 300 L673 302 L672 302 L670 304 L670 305 L662 313 L662 314 L658 318 L658 319 L655 322 L655 323 L652 326 L652 327 L650 329 L650 330 L649 331 L649 332 L647 335 Z"/>
</svg>